<svg id="visual" preserveAspectRatio="none"  viewBox="0 0 960 540" width="960" height="540" xmlns="http://www.w3.org/2000/svg" xmlns:xlink="http://www.w3.org/1999/xlink" version="1.1"><path d="M0 461L22.8 461.8C45.7 462.7 91.3 464.3 137 462.3C182.7 460.3 228.3 454.7 274 453C319.7 451.3 365.3 453.7 411.2 454.7C457 455.7 503 455.3 548.8 457.5C594.7 459.7 640.3 464.3 686 464.2C731.7 464 777.3 459 823 458.7C868.7 458.3 914.3 462.7 937.2 464.8L960 467L960 541L937.2 541C914.3 541 868.7 541 823 541C777.3 541 731.7 541 686 541C640.3 541 594.7 541 548.8 541C503 541 457 541 411.2 541C365.3 541 319.7 541 274 541C228.3 541 182.7 541 137 541C91.3 541 45.7 541 22.8 541L0 541Z" fill="#f5b900"></path><path d="M0 474L22.8 474.7C45.7 475.3 91.3 476.7 137 475.8C182.7 475 228.3 472 274 470.5C319.7 469 365.3 469 411.2 472.2C457 475.3 503 481.7 548.8 483C594.7 484.3 640.3 480.7 686 478.3C731.7 476 777.3 475 823 474.5C868.7 474 914.3 474 937.2 474L960 474L960 541L937.2 541C914.3 541 868.7 541 823 541C777.3 541 731.7 541 686 541C640.3 541 594.7 541 548.8 541C503 541 457 541 411.2 541C365.3 541 319.7 541 274 541C228.3 541 182.7 541 137 541C91.3 541 45.7 541 22.8 541L0 541Z" fill="#e2a300"></path><path d="M0 489L22.8 489.3C45.7 489.7 91.3 490.3 137 491.3C182.7 492.3 228.3 493.7 274 493.5C319.7 493.3 365.3 491.7 411.2 493.2C457 494.7 503 499.3 548.8 502.2C594.7 505 640.3 506 686 504C731.7 502 777.3 497 823 495.5C868.7 494 914.3 496 937.2 497L960 498L960 541L937.2 541C914.3 541 868.7 541 823 541C777.3 541 731.7 541 686 541C640.3 541 594.7 541 548.8 541C503 541 457 541 411.2 541C365.3 541 319.7 541 274 541C228.3 541 182.7 541 137 541C91.3 541 45.7 541 22.8 541L0 541Z" fill="#ce8f00"></path><path d="M0 516L22.8 515C45.7 514 91.3 512 137 511.5C182.7 511 228.3 512 274 514.5C319.7 517 365.3 521 411.2 521.7C457 522.3 503 519.7 548.8 517.5C594.7 515.3 640.3 513.7 686 512.5C731.7 511.3 777.3 510.7 823 512.8C868.7 515 914.3 520 937.2 522.5L960 525L960 541L937.2 541C914.3 541 868.7 541 823 541C777.3 541 731.7 541 686 541C640.3 541 594.7 541 548.8 541C503 541 457 541 411.2 541C365.3 541 319.7 541 274 541C228.3 541 182.7 541 137 541C91.3 541 45.7 541 22.8 541L0 541Z" fill="#b97b00"></path></svg>