<svg id="visual" preserveAspectRatio="none" viewBox="0 0 900 600" width="900" height="600" xmlns="http://www.w3.org/2000/svg" xmlns:xlink="http://www.w3.org/1999/xlink" version="1.1"><path d="M0 79L9.3 77.3C18.7 75.7 37.3 72.3 56.2 73C75 73.7 94 78.3 112.8 78.5C131.7 78.7 150.3 74.3 169 72C187.7 69.7 206.3 69.3 225 71C243.7 72.7 262.3 76.3 281.2 77.5C300 78.7 319 77.3 337.8 76.7C356.7 76 375.3 76 394 77.5C412.7 79 431.3 82 450 81.2C468.7 80.3 487.3 75.7 506.2 75.8C525 76 544 81 562.8 82.3C581.7 83.7 600.3 81.3 619 79.8C637.7 78.3 656.3 77.7 675 78.3C693.7 79 712.3 81 731.2 80.3C750 79.7 769 76.3 787.8 76C806.7 75.7 825.3 78.3 844 79.7C862.7 81 881.3 81 890.7 81L900 81L900 0L890.7 0C881.3 0 862.7 0 844 0C825.3 0 806.7 0 787.8 0C769 0 750 0 731.2 0C712.3 0 693.7 0 675 0C656.3 0 637.7 0 619 0C600.3 0 581.7 0 562.8 0C544 0 525 0 506.2 0C487.3 0 468.7 0 450 0C431.3 0 412.7 0 394 0C375.3 0 356.7 0 337.8 0C319 0 300 0 281.2 0C262.3 0 243.7 0 225 0C206.3 0 187.7 0 169 0C150.3 0 131.7 0 112.8 0C94 0 75 0 56.2 0C37.3 0 18.7 0 9.3 0L0 0Z" fill="#e7b300"></path><path d="M0 68L9.3 68C18.7 68 37.3 68 56.2 65.8C75 63.7 94 59.3 112.8 58.5C131.7 57.7 150.3 60.3 169 61.8C187.7 63.3 206.3 63.7 225 62.5C243.7 61.3 262.3 58.7 281.2 60.3C300 62 319 68 337.8 71C356.7 74 375.3 74 394 73.3C412.7 72.7 431.3 71.3 450 70.5C468.7 69.7 487.3 69.3 506.2 67.8C525 66.3 544 63.7 562.8 64.3C581.7 65 600.3 69 619 69.5C637.7 70 656.3 67 675 65.5C693.7 64 712.3 64 731.2 62.7C750 61.3 769 58.7 787.8 57.2C806.7 55.7 825.3 55.3 844 55.2C862.7 55 881.3 55 890.7 55L900 55L900 0L890.7 0C881.3 0 862.7 0 844 0C825.3 0 806.7 0 787.8 0C769 0 750 0 731.2 0C712.3 0 693.7 0 675 0C656.3 0 637.7 0 619 0C600.3 0 581.7 0 562.8 0C544 0 525 0 506.2 0C487.3 0 468.7 0 450 0C431.3 0 412.7 0 394 0C375.3 0 356.7 0 337.8 0C319 0 300 0 281.2 0C262.3 0 243.7 0 225 0C206.3 0 187.7 0 169 0C150.3 0 131.7 0 112.8 0C94 0 75 0 56.2 0C37.3 0 18.7 0 9.3 0L0 0Z" fill="#d9a200"></path><path d="M0 53L9.3 52.3C18.7 51.7 37.3 50.3 56.2 49.8C75 49.3 94 49.7 112.8 49.2C131.7 48.7 150.3 47.3 169 46.3C187.7 45.3 206.3 44.7 225 45.5C243.7 46.3 262.3 48.7 281.2 50.8C300 53 319 55 337.8 55.2C356.7 55.3 375.3 53.7 394 52.3C412.7 51 431.3 50 450 48.5C468.7 47 487.3 45 506.2 46C525 47 544 51 562.8 52.5C581.7 54 600.3 53 619 51.7C637.7 50.3 656.3 48.7 675 49.3C693.7 50 712.3 53 731.2 52.7C750 52.3 769 48.7 787.8 46.3C806.7 44 825.3 43 844 43.7C862.7 44.3 881.3 46.7 890.7 47.8L900 49L900 0L890.7 0C881.3 0 862.7 0 844 0C825.3 0 806.7 0 787.8 0C769 0 750 0 731.2 0C712.3 0 693.7 0 675 0C656.3 0 637.7 0 619 0C600.3 0 581.7 0 562.8 0C544 0 525 0 506.2 0C487.3 0 468.7 0 450 0C431.3 0 412.7 0 394 0C375.3 0 356.7 0 337.8 0C319 0 300 0 281.2 0C262.3 0 243.7 0 225 0C206.3 0 187.7 0 169 0C150.3 0 131.7 0 112.8 0C94 0 75 0 56.2 0C37.3 0 18.7 0 9.3 0L0 0Z" fill="#cb9100"></path><path d="M0 28L9.3 29.8C18.7 31.7 37.3 35.3 56.2 36C75 36.7 94 34.3 112.8 34.5C131.7 34.7 150.3 37.3 169 38.5C187.7 39.7 206.3 39.3 225 38.8C243.7 38.3 262.3 37.7 281.2 37.5C300 37.3 319 37.7 337.8 38.2C356.7 38.7 375.3 39.3 394 39.8C412.7 40.3 431.3 40.7 450 39.7C468.7 38.7 487.3 36.3 506.2 36.3C525 36.3 544 38.7 562.8 39.2C581.7 39.7 600.3 38.3 619 37.3C637.7 36.3 656.3 35.7 675 35.3C693.7 35 712.3 35 731.2 34C750 33 769 31 787.8 30.7C806.7 30.3 825.3 31.7 844 33C862.7 34.3 881.3 35.7 890.7 36.3L900 37L900 0L890.7 0C881.3 0 862.7 0 844 0C825.3 0 806.7 0 787.8 0C769 0 750 0 731.2 0C712.3 0 693.7 0 675 0C656.3 0 637.7 0 619 0C600.3 0 581.7 0 562.8 0C544 0 525 0 506.2 0C487.3 0 468.7 0 450 0C431.3 0 412.7 0 394 0C375.3 0 356.7 0 337.8 0C319 0 300 0 281.2 0C262.3 0 243.7 0 225 0C206.3 0 187.7 0 169 0C150.3 0 131.7 0 112.8 0C94 0 75 0 56.2 0C37.3 0 18.7 0 9.3 0L0 0Z" fill="#bd8100"></path><path d="M0 16L9.3 17.5C18.7 19 37.3 22 56.2 22.8C75 23.7 94 22.3 112.8 21.5C131.7 20.7 150.3 20.3 169 20.2C187.7 20 206.3 20 225 19C243.7 18 262.3 16 281.2 15.2C300 14.3 319 14.7 337.8 15C356.7 15.3 375.3 15.7 394 16.2C412.7 16.7 431.3 17.3 450 17.5C468.7 17.7 487.3 17.3 506.2 17.2C525 17 544 17 562.8 16.7C581.7 16.3 600.3 15.7 619 15.5C637.7 15.3 656.3 15.7 675 15.7C693.7 15.7 712.3 15.3 731.2 16C750 16.7 769 18.3 787.8 18.3C806.7 18.3 825.3 16.7 844 17.3C862.7 18 881.3 21 890.7 22.5L900 24L900 0L890.7 0C881.3 0 862.7 0 844 0C825.3 0 806.7 0 787.8 0C769 0 750 0 731.2 0C712.3 0 693.7 0 675 0C656.3 0 637.7 0 619 0C600.3 0 581.7 0 562.8 0C544 0 525 0 506.2 0C487.3 0 468.7 0 450 0C431.3 0 412.7 0 394 0C375.3 0 356.7 0 337.8 0C319 0 300 0 281.2 0C262.3 0 243.7 0 225 0C206.3 0 187.7 0 169 0C150.3 0 131.7 0 112.8 0C94 0 75 0 56.2 0C37.3 0 18.7 0 9.3 0L0 0Z" fill="#ae7200"></path></svg>